<svg xmlns="http://www.w3.org/2000/svg" xmlns:xlink="http://www.w3.org/1999/xlink" width="415" height="415" viewBox="0 0 415 415">
    <g fill="none" fill-rule="evenodd">
        <path fill="#CDD4DF" d="M207.336 414.586C93.034 414.586.043 321.595.043 207.293h76.232c0 72.267 58.794 131.06 131.06 131.06 23.063 0 45.724-6.061 65.534-17.529l38.19 65.978c-31.402 18.176-67.27 27.784-103.723 27.784"/>
        <path fill="#CDD4DF" d="M311.059 386.817l-38.19-65.978c40.419-23.395 65.527-66.897 65.527-113.531 0-46.653-25.124-90.164-65.566-113.554l38.166-65.992c30.929 17.889 56.87 43.615 75.017 74.399 18.72 31.756 28.615 68.115 28.615 105.147 0 37.019-9.888 73.368-28.596 105.116-18.135 30.775-44.061 56.5-74.973 74.393"/>
        <path fill="#414C77" d="M76.302 207.293H.07C.07 92.991 93.06 0 207.363 0c36.429 0 72.274 9.595 103.659 27.748l-38.168 65.99c-19.8-11.452-42.446-17.505-65.491-17.505-72.267 0-131.061 58.793-131.061 131.06"/>
    </g>
</svg>